HIERARCHY
ROOT Hips
{
	OFFSET -3.958830 18.904000 13.208200
	CHANNELS 6 Xposition Yposition Zposition Zrotation Yrotation Xrotation 
	JOINT LHipJoint
	{
		OFFSET 0.000000 0.000000 0.000000
		CHANNELS 3 Zrotation Yrotation Xrotation
		JOINT LeftUpLeg
		{
			OFFSET 1.800000 -1.400000 0.085000
			CHANNELS 3 Zrotation Yrotation Xrotation
			JOINT LeftLeg
			{
				OFFSET 2.215000 -6.000000 0.000000
				CHANNELS 3 Zrotation Yrotation Xrotation
				JOINT LeftFoot
				{
					OFFSET 2.500000 -6.900000 0.000000
					CHANNELS 3 Zrotation Yrotation Xrotation
					JOINT LeftToeBase
					{
						OFFSET 0.200000 -0.500000 1.950000
						CHANNELS 3 Zrotation Yrotation Xrotation
						End Site
						{
							OFFSET 0.000000 0.000000 0.000000
						}
					}
				}
			}
		}
	}
	JOINT RHipJoint
	{
		OFFSET 0.000000 0.000000 0.000000
		CHANNELS 3 Zrotation Yrotation Xrotation
		JOINT RightUpLeg
		{
			OFFSET -1.800000 -1.400000 0.085000
			CHANNELS 3 Zrotation Yrotation Xrotation
			JOINT RightLeg
			{
				OFFSET -2.215000 -6.000000 0.000000
				CHANNELS 3 Zrotation Yrotation Xrotation
				JOINT RightFoot
				{
					OFFSET -2.500000 -6.900000 0.000000
					CHANNELS 3 Zrotation Yrotation Xrotation
					JOINT RightToeBase
					{
						OFFSET -0.200000 -0.500000 1.950000
						CHANNELS 3 Zrotation Yrotation Xrotation
						End Site
						{
							OFFSET 0.000000 0.000000 0.000000
						}
					}
				}
			}
		}
	}
	JOINT LowerBack
	{
		OFFSET 0.000000 0.000000 0.000000
		CHANNELS 3 Zrotation Yrotation Xrotation
		JOINT Spine
		{
			OFFSET -0.087000 1.940000 -0.288900
			CHANNELS 3 Zrotation Yrotation Xrotation
			JOINT Spine1
			{
				OFFSET 0.000000 1.950000 0.060000
				CHANNELS 3 Zrotation Yrotation Xrotation
				JOINT Neck
				{
					OFFSET 0.000000 0.000000 0.000000
					CHANNELS 3 Zrotation Yrotation Xrotation
					JOINT Neck1
					{
						OFFSET 0.000000 1.600000 0.340000
						CHANNELS 3 Zrotation Yrotation Xrotation
						JOINT Head
						{
							OFFSET 0.000000 1.667000 -0.240000
							CHANNELS 3 Zrotation Yrotation Xrotation
							End Site
							{
								OFFSET 0.000000 0.000000 0.000000
							}
						}
					}
				}
				JOINT LeftShoulder
				{
					OFFSET 0.000000 0.000000 0.000000
					CHANNELS 3 Zrotation Yrotation Xrotation
					JOINT LeftArm
					{
						OFFSET 2.700000 1.550000 -0.730000
						CHANNELS 3 Zrotation Yrotation Xrotation
						JOINT LeftForeArm
						{
							OFFSET 5.450000 0.000000 0.000000
							CHANNELS 3 Zrotation Yrotation Xrotation
							JOINT LeftHand
							{
								OFFSET 3.450000 0.000000 0.000000
								CHANNELS 3 Zrotation Yrotation Xrotation
								JOINT LeftHandIndex1
								{
									OFFSET 0.750000 0.000000 0.000000
									CHANNELS 3 Zrotation Yrotation Xrotation
									End Site
									{
										OFFSET 0.000000 0.000000 0.000000
									}
								}
							}
						}
					}
				}
				JOINT RightShoulder
				{
					OFFSET 0.000000 0.000000 0.000000
					CHANNELS 3 Zrotation Yrotation Xrotation
					JOINT RightArm
					{
						OFFSET -2.700000 1.550000 -0.730000
						CHANNELS 3 Zrotation Yrotation Xrotation
						JOINT RightForeArm
						{
							OFFSET -5.450000 0.000000 0.000000
							CHANNELS 3 Zrotation Yrotation Xrotation
							JOINT RightHand
							{
								OFFSET -3.450000 0.000000 0.000000
								CHANNELS 3 Zrotation Yrotation Xrotation
								JOINT RightHandIndex1
								{
									OFFSET -0.750000 0.000000 0.000000
									CHANNELS 3 Zrotation Yrotation Xrotation
									End Site
									{
										OFFSET 0.000000 0.000000 0.000000
									}
								}
							}
						}
					}
				}
			}
		}
	}
}
MOTION
Frames: 9
Frame Time: 0.016667
0.058790 16.738910 -0.849860 -4.226746 -1.566798 12.495673 -15.053578 13.279244 3.253043 13.795793 -1.903433 -14.438155 -6.941150 4.162184 2.956897 0.014291 3.711671 3.476827 0.296670 0.042500 0.257520 18.194100 -10.717513 2.889110 -9.395967 1.449826 -14.631767 6.168026 -3.414393 4.050940 -0.123333 -3.076848 3.336649 -0.094570 0.344650 0.404170 -3.590554 -1.874562 -7.878024 10.338815 -0.381138 6.906764 -2.543213 0.492912 -9.629492 2.376638 -1.111648 -8.508256 -3.355948 0.799683 31.096824 -3.009770 2.025180 2.614890 -4.599471 10.278098 0.348361 -9.206871 12.778359 -1.775007 14.262561 1.784833 0.356629 -4.135994 3.059236 0.169770 0.246410 -0.019190 0.267700 -0.141627 -8.104339 5.419376 17.987364 -16.001892 -3.845437 -17.110171 -0.565124 0.582053 3.001784 -1.621737 0.032040 -0.144060 -0.236960 0.077340 
0.063130 16.740200 -0.846410 -4.163868 -1.566080 12.366424 -15.049818 13.299746 3.251709 13.661998 -1.885569 -14.277564 -6.865879 4.150424 2.972613 0.004743 3.702121 3.477515 0.302760 0.047870 0.267300 18.191855 -10.739702 2.881920 -9.496534 1.421398 -14.604900 6.093160 -3.441356 4.265600 -0.128585 -3.070945 3.332557 -0.089690 0.332320 0.401120 -3.592266 -1.873428 -7.882179 10.329192 -0.358446 6.999644 -2.625074 0.526915 -9.858814 2.392751 -1.093628 -8.379128 -3.395398 0.766903 31.508389 -3.046260 1.998550 2.267650 -4.679380 10.551040 0.198341 -9.132466 12.634262 -1.749356 14.369782 1.864707 0.366414 -4.129340 3.047474 0.183400 0.235910 -0.009060 0.264150 -0.107026 -8.376400 5.322437 18.107347 -15.969765 -3.880893 -17.361297 -0.704997 0.636782 3.006633 -1.615105 0.028920 -0.140610 -0.239100 0.071220 
0.067680 16.741700 -0.842580 -4.060701 -1.533732 12.244983 -15.048475 13.324975 3.255443 13.501480 -1.872140 -14.141020 -6.836050 4.146074 3.013017 -0.000390 3.689980 3.477844 0.315640 0.057780 0.281070 18.185048 -10.759752 2.877578 -9.648762 1.389544 -14.550866 6.036492 -3.469838 4.439544 -0.139383 -3.065817 3.328957 -0.086850 0.316410 0.402300 -3.584277 -1.885662 -7.897087 10.240454 -0.351091 7.146707 -2.674016 0.553651 -10.204087 2.405602 -1.083788 -8.270605 -3.467424 0.774787 32.027778 -2.985330 1.956720 1.840860 -4.732069 10.840561 0.054510 -9.039180 12.553114 -1.729329 14.484850 1.819251 0.367957 -4.116358 3.043051 0.199900 0.221770 0.005390 0.263310 -0.077361 -8.647441 5.231574 18.157577 -15.966438 -3.910520 -17.596882 -0.694964 0.676133 3.009054 -1.610275 0.032160 -0.140880 -0.244370 0.065630 
0.073340 16.743630 -0.837740 -3.948241 -1.510570 12.141053 -15.049849 13.351629 3.264247 13.351605 -1.857252 -14.018931 -6.851799 4.149263 3.040087 -0.002306 3.681768 3.477413 0.325400 0.067370 0.289200 18.174765 -10.775962 2.872415 -9.845503 1.360926 -14.520509 6.014334 -3.505686 4.630933 -0.148886 -3.061635 3.326488 -0.085280 0.304260 0.403110 -3.567420 -1.908592 -7.916211 10.114924 -0.333940 7.316907 -2.631657 0.596473 -10.599203 2.401837 -1.125766 -8.170540 -3.634895 0.774670 32.515783 -2.886020 1.848600 1.401980 -4.775202 11.162923 -0.100549 -9.019700 12.484098 -1.725794 14.662267 1.672002 0.369728 -4.104629 3.037889 0.214170 0.209160 0.018700 0.263010 -0.008589 -8.894433 5.165345 18.008892 -16.046936 -3.897147 -17.668928 -0.546850 0.686004 3.008023 -1.601624 0.036140 -0.138920 -0.247440 0.063210 
0.080750 16.743300 -0.831400 -3.878324 -1.462536 12.083394 -15.048859 13.363840 3.266044 13.235719 -1.849688 -13.898655 -6.811991 4.133047 3.002932 -0.004979 3.676210 3.477714 0.335400 0.074180 0.300380 18.171382 -10.788118 2.866077 -10.022262 1.340388 -14.492318 6.042394 -3.544789 4.790516 -0.156430 -3.067115 3.319564 -0.083070 0.295420 0.407910 -3.565047 -1.912560 -7.919499 10.108685 -0.333116 7.358681 -2.661454 0.601070 -10.848790 2.419997 -1.136471 -8.025466 -3.688046 0.745514 32.713680 -2.912150 1.810420 1.055110 -4.844568 11.497165 -0.253432 -9.039421 12.484242 -1.729912 14.887053 1.434834 0.365268 -4.100132 3.040450 0.222170 0.202580 0.027290 0.261870 0.018564 -9.200110 5.072178 17.909016 -16.046350 -3.897872 -17.722489 -0.228173 0.651318 3.003262 -1.601361 0.040590 -0.140290 -0.250050 0.059750 
0.088360 16.742970 -0.824480 -3.836903 -1.419810 12.015988 -15.041189 13.372090 3.262343 13.137843 -1.832894 -13.786719 -6.776474 4.131078 3.027544 -0.013115 3.675243 3.477780 0.337160 0.075280 0.300530 18.175657 -10.804332 2.861163 -10.148912 1.319494 -14.446608 6.041189 -3.576624 4.924671 -0.159508 -3.075429 3.314238 -0.080710 0.294410 0.407300 -3.583318 -1.900306 -7.917033 10.227273 -0.339046 7.383062 -2.826175 0.598320 -11.029701 2.409228 -1.162530 -7.898603 -3.747185 0.765899 32.833103 -2.802720 1.731830 0.813000 -4.968076 11.750736 -0.374096 -8.895652 12.568409 -1.705059 15.014445 1.167863 0.348974 -4.096804 3.039395 0.229340 0.199460 0.028910 0.260100 0.128779 -9.439290 4.994882 17.850372 -16.136234 -3.912581 -17.854375 0.158438 0.612222 2.993767 -1.600940 0.037940 -0.136230 -0.246570 0.057300 
0.095560 16.742280 -0.815350 -3.782710 -1.355292 11.944947 -15.032889 13.378244 3.257750 13.028193 -1.815467 -13.639995 -6.718304 4.118156 3.004573 -0.011586 3.666399 3.480855 0.342330 0.082140 0.301210 18.180930 -10.817895 2.859859 -10.289796 1.287050 -14.332381 6.051569 -3.598044 4.957618 -0.165473 -3.088069 3.309552 -0.077940 0.291260 0.406920 -3.604445 -1.888478 -7.917272 10.336964 -0.360047 7.355549 -2.985665 0.570308 -11.215675 2.377393 -1.213527 -7.792234 -3.869046 0.835940 33.068982 -2.608520 1.648080 0.698250 -5.048109 11.993666 -0.472066 -8.734575 12.643645 -1.677500 15.170578 0.997256 0.352085 -4.090382 3.043354 0.231760 0.194770 0.033150 0.262340 0.239838 -9.654010 4.923902 17.720466 -16.206881 -3.902889 -17.924437 0.565573 0.564633 2.988522 -1.603025 0.040730 -0.135000 -0.248780 0.058870 
0.103470 16.741910 -0.805540 -3.753971 -1.264337 11.917302 -15.025362 13.379447 3.254404 12.942769 -1.802512 -13.532952 -6.668510 4.101259 2.943272 -0.007839 3.657928 3.485840 0.343310 0.086610 0.299210 18.187485 -10.826276 2.857174 -10.392895 1.262245 -14.237796 6.046977 -3.610644 4.970384 -0.169238 -3.099094 3.305854 -0.076880 0.291650 0.405810 -3.627096 -1.878336 -7.913530 10.496025 -0.386747 7.267982 -3.130330 0.531238 -11.371650 2.362334 -1.284182 -7.682586 -4.013751 0.874482 33.209382 -2.549810 1.600190 0.681750 -5.021891 12.289110 -0.571847 -8.779084 12.681775 -1.696973 15.379534 0.762951 0.355994 -4.088314 3.045879 0.230210 0.193330 0.034810 0.263850 0.208514 -9.897807 4.862979 17.681875 -16.246356 -3.924403 -17.921969 1.094285 0.488867 2.982731 -1.605606 0.042960 -0.132970 -0.249850 0.062100 
0.109570 16.739920 -0.795990 -3.731098 -1.125824 11.889534 -15.019906 13.379175 3.254405 12.924617 -1.788683 -13.458528 -6.704739 4.109678 2.921533 -0.007343 3.665431 3.483931 0.343270 0.087880 0.296940 18.193262 -10.831705 2.851015 -10.424504 1.237053 -14.109263 5.951468 -3.606062 4.963760 -0.170428 -3.106762 3.305294 -0.075020 0.293400 0.404820 -3.646230 -1.874547 -7.908750 10.633766 -0.425287 7.183035 -3.246613 0.478678 -11.499343 2.341298 -1.374239 -7.566383 -4.187678 0.924599 33.296006 -2.537750 1.570240 0.674950 -5.021682 12.570213 -0.673040 -8.756638 12.725690 -1.695215 15.543873 0.554336 0.354687 -4.089049 3.047270 0.229300 0.194070 0.033910 0.264570 0.220086 -10.120252 4.799241 17.556889 -16.257403 -3.920138 -17.878570 1.539961 0.422690 2.975110 -1.607183 0.042320 -0.130240 -0.248680 0.063050 
